<svg xmlns="http://www.w3.org/2000/svg" width="256" height="256" viewBox="0 0 100 100"><rect width="100" height="100" rx="20" fill="#f2f1ec"></rect><path d="M31.08 15.67L31.08 15.67L31.08 28.87L42.77 28.87L42.77 30.45L31.08 30.45L31.08 61.02Q31.08 64.73 32.42 66.23Q33.77 67.74 36.14 67.74L36.14 67.74Q38.51 67.74 40.24 65.80Q41.98 63.86 43.25 59.28L43.25 59.28L44.83 59.68Q44.04 64.26 41.70 67.42Q39.37 70.58 34.56 70.58L34.56 70.58Q31.87 70.58 30.13 69.91Q28.39 69.24 27.05 67.97L27.05 67.97Q25.31 66.16 24.64 63.63Q23.97 61.10 23.97 56.91L23.97 56.91L23.97 30.45L16.39 30.45L16.39 28.87L23.97 28.87L23.97 16.78Q25.94 16.70 27.76 16.46Q29.58 16.23 31.08 15.67ZM59.28 84.33L59.28 84.33Q55.10 84.33 51.38 83.46Q47.67 82.59 45.42 80.73Q43.17 78.87 43.17 76.03L43.17 76.03Q43.17 73.27 45.38 71.29Q47.59 69.32 51.38 68.29L51.38 68.29L51.86 69.55Q50.12 70.11 49.09 71.76Q48.06 73.42 48.06 75.48L48.06 75.48Q48.06 79.11 51.42 81.05Q54.78 82.98 60.15 82.98L60.15 82.98Q63.71 82.98 67.10 82.07Q70.50 81.17 72.71 79.03Q74.92 76.90 74.92 73.42L74.92 73.42Q74.92 70.82 73.07 69.12Q71.21 67.42 65.76 67.42L65.76 67.42L59.91 67.42Q57.39 67.42 55.02 67.02Q52.65 66.63 51.15 65.37Q49.64 64.10 49.64 61.49L49.64 61.49Q49.64 58.81 51.86 56.32Q54.07 53.83 59.99 51.22L59.99 51.22L60.94 51.94Q58.26 53.36 56.28 54.82Q54.31 56.28 54.31 58.26L54.31 58.26Q54.31 60.78 58.10 60.78L58.10 60.78L67.97 60.78Q72.87 60.78 76.62 62.96Q80.38 65.13 80.38 70.11L80.38 70.11Q80.38 73.82 78.01 77.06Q75.64 80.30 70.94 82.31Q66.23 84.33 59.28 84.33ZM59.68 52.65L59.68 52.65Q53.83 52.65 49.84 49.64Q45.85 46.64 45.85 40.16L45.85 40.16Q45.85 33.61 49.84 30.65Q53.83 27.68 59.68 27.68L59.68 27.68Q65.52 27.68 69.51 30.65Q73.50 33.61 73.50 40.16L73.50 40.16Q73.50 46.64 69.51 49.64Q65.52 52.65 59.68 52.65ZM59.68 51.22L59.68 51.22Q62.68 51.22 64.38 48.85Q66.08 46.48 66.08 40.16L66.08 40.16Q66.08 33.84 64.38 31.47Q62.68 29.10 59.68 29.10L59.68 29.10Q56.75 29.10 55.02 31.47Q53.28 33.84 53.28 40.16L53.28 40.16Q53.28 46.48 55.02 48.85Q56.75 51.22 59.68 51.22ZM71.05 34.24L71.05 34.24L69.63 33.69Q70.74 31.00 73.42 28.95Q76.11 26.89 79.03 26.89L79.03 26.89Q81.09 26.89 82.35 28.04Q83.61 29.18 83.61 31.47L83.61 31.47Q83.61 33.92 82.31 34.91Q81.01 35.90 79.66 35.90L79.66 35.90Q78.48 35.90 77.45 35.07Q76.43 34.24 76.27 32.42Q76.11 30.61 77.37 27.76L77.37 27.76L78.40 28.00Q75.08 29.26 73.66 30.65Q72.24 32.03 71.05 34.24Z" fill="#171717"></path></svg>